# xmcd
#
# Track frame offsets:
#	150
#	18143
#	36790
#	49708
#	73518
#	87420
#	99630
#	110780
#	122375
#	132298
#
# Disc length: 1967 seconds
#
# Revision: 2
# Processed by: cddbd v1.5.2PL0 Copyright (c) Steve Scherf et al.
# Submitted via: audiograbber 1.83.01
#
DISCID=7f07ad0a
DTITLE=Various Artist - Country Pop Hits Of The 70's
DYEAR=1998
DGENRE=Oldies
TTITLE0=Johnny Cash - One Piece At A Time
TTITLE1=Marty Robbins - El Paso City
TTITLE2=Tammy Wynette - My Man
TTITLE3=David Allen Coe - You Never Even Called Me By My Name
TTITLE4=Charlie Rich - Since I Fell For You
TTITLE5=George Jones - The Door
TTITLE6=Moe Bandy - Here I Am Drunk Again
TTITLE7=Joe Stampley - Roll On Big Mama
TTITLE8=Johnny Paycheck - Mr. Lovemaker
TTITLE9=Barbara Fairchild - Baby Doll
EXTD=
EXTT0=
EXTT1=
EXTT2=
EXTT3=
EXTT4=
EXTT5=
EXTT6=
EXTT7=
EXTT8=
EXTT9=
PLAYORDER=
